<svg width="28" height="28" viewBox="0 0 28 28" fill="none" xmlns="http://www.w3.org/2000/svg">
<path d="M27.7533 13.8775C27.7533 14.3311 27.7316 14.7846 27.6864 15.2364C27.6412 15.6899 27.5762 16.1381 27.4858 16.5844C27.3973 17.0289 27.2871 17.4698 27.1552 17.9053C27.0232 18.3389 26.8715 18.7672 26.6962 19.1864C26.5227 19.6074 26.3294 20.0176 26.1143 20.4188C25.9011 20.8181 25.668 21.2084 25.415 21.5861C25.1621 21.9637 24.891 22.3287 24.6037 22.6793C24.3146 23.0316 24.011 23.3677 23.6894 23.6894C23.3677 24.011 23.0316 24.3146 22.6793 24.6037C22.3287 24.891 21.9637 25.1621 21.5861 25.415C21.2084 25.668 20.8181 25.9011 20.4188 26.1143C20.0176 26.3294 19.6074 26.5227 19.1864 26.6962C18.7672 26.8715 18.3389 27.0232 17.9053 27.1552C17.4698 27.2871 17.0289 27.3973 16.5844 27.4858C16.1381 27.5762 15.6899 27.6412 15.2364 27.6864C14.7846 27.7316 14.3311 27.7533 13.8775 27.7533C13.4222 27.7533 12.9686 27.7316 12.5169 27.6864C12.0633 27.6412 11.6152 27.5762 11.1689 27.4858C10.7244 27.3973 10.2835 27.2871 9.84799 27.1552C9.41432 27.0232 8.98607 26.8715 8.56685 26.6962C8.14582 26.5227 7.73564 26.3294 7.33449 26.1143C6.93515 25.9011 6.54485 25.668 6.16719 25.415C5.78953 25.1621 5.42453 24.891 5.07397 24.6037C4.72161 24.3146 4.38552 24.011 4.06388 23.6894C3.74224 23.3677 3.43867 23.0316 3.14955 22.6793C2.86224 22.3287 2.5912 21.9637 2.33822 21.5861C2.08524 21.2084 1.85214 20.8181 1.63892 20.4188C1.42389 20.0176 1.23055 19.6074 1.05708 19.1864C0.881802 18.7672 0.730016 18.3389 0.598107 17.9053C0.466198 17.4698 0.355973 17.0289 0.267432 16.5844C0.177083 16.1381 0.112033 15.6899 0.0668579 15.2364C0.0216838 14.7846 0 14.3311 0 13.8775C0 13.4222 0.0216838 12.9686 0.0668579 12.5169C0.112033 12.0633 0.177083 11.6152 0.267432 11.1689C0.355973 10.7244 0.466198 10.2835 0.598107 9.84799C0.730016 9.41432 0.881802 8.98607 1.05708 8.56685C1.23055 8.14582 1.42389 7.73564 1.63892 7.33449C1.85214 6.93515 2.08524 6.54485 2.33822 6.16719C2.5912 5.78953 2.86224 5.42453 3.14955 5.07397C3.43867 4.72161 3.74224 4.38552 4.06388 4.06388C4.38552 3.74224 4.72161 3.43867 5.07397 3.14955C5.42453 2.86224 5.78953 2.5912 6.16719 2.33822C6.54485 2.08524 6.93515 1.85214 7.33449 1.63892C7.73564 1.42389 8.14582 1.23055 8.56685 1.05708C8.98607 0.881802 9.41432 0.730016 9.84799 0.598107C10.2835 0.466198 10.7244 0.355973 11.1689 0.267432C11.6152 0.177083 12.0633 0.112033 12.5169 0.0668579C12.9686 0.0216838 13.4222 0 13.8775 0C14.3311 0 14.7846 0.0216838 15.2364 0.0668579C15.6899 0.112033 16.1381 0.177083 16.5844 0.267432C17.0289 0.355973 17.4698 0.466198 17.9053 0.598107C18.3389 0.730016 18.7672 0.881802 19.1864 1.05708C19.6074 1.23055 20.0176 1.42389 20.4188 1.63892C20.8181 1.85214 21.2084 2.08524 21.5861 2.33822C21.9637 2.5912 22.3287 2.86224 22.6793 3.14955C23.0316 3.43867 23.3677 3.74224 23.6894 4.06388C24.011 4.38552 24.3146 4.72161 24.6037 5.07397C24.891 5.42453 25.1621 5.78953 25.415 6.16719C25.668 6.54485 25.9011 6.93515 26.1143 7.33449C26.3294 7.73564 26.5227 8.14582 26.6962 8.56685C26.8715 8.98607 27.0232 9.41432 27.1552 9.84799C27.2871 10.2835 27.3973 10.7244 27.4858 11.1689C27.5762 11.6152 27.6412 12.0633 27.6864 12.5169C27.7316 12.9686 27.7533 13.4222 27.7533 13.8775Z" fill="#2FB4B6"/>
<path fill-rule="evenodd" clip-rule="evenodd" d="M12.4067 18.7997L13.7637 17.4427C14.0564 17.15 14.5317 17.15 14.8244 17.4427C15.1171 17.7336 15.1171 18.2107 14.8244 18.5016L12.5566 20.7693C11.8158 21.5102 10.8165 21.9204 9.77028 21.9204C8.72405 21.9204 7.72479 21.5102 6.98393 20.7693C6.24308 20.0285 5.8347 19.0292 5.8347 17.983C5.8347 16.9367 6.24308 15.9375 6.98393 15.1966L9.89677 12.2838C9.89858 12.282 9.90219 12.2802 9.90219 12.2784C10.6431 11.5484 11.6315 11.1418 12.6723 11.1418C13.7203 11.1418 14.716 11.5538 15.4568 12.2964C15.5797 12.4175 15.6917 12.5476 15.7965 12.6831C15.9013 12.8205 15.9971 12.9632 16.0838 13.1114C16.2898 13.4674 16.167 13.9281 15.811 14.1341C15.4532 14.3401 14.9924 14.2172 14.7864 13.8613C14.734 13.7691 14.6744 13.6788 14.6094 13.5957C14.5443 13.5107 14.4738 13.4312 14.3979 13.3553C13.939 12.8964 13.321 12.6398 12.6723 12.6398C12.0218 12.6398 11.4038 12.8964 10.9448 13.3553L8.04282 16.2573C7.58385 16.7163 7.33268 17.3343 7.33268 17.983C7.33268 18.6317 7.58385 19.2497 8.04282 19.7104C8.5036 20.1694 9.12158 20.4206 9.77028 20.4206C10.419 20.4206 11.037 20.1694 11.4959 19.7104L12.4067 18.7997Z" fill="#FEFEFE"/>
<path fill-rule="evenodd" clip-rule="evenodd" d="M15.3466 8.95355L13.9896 10.3106C13.6968 10.6033 13.2216 10.6033 12.9289 10.3106C12.6379 10.0197 12.6379 9.54262 12.9289 9.2517L15.1966 6.98395C15.9375 6.24309 16.9367 5.83472 17.983 5.83472C19.0292 5.83472 20.0285 6.24309 20.7693 6.98395C21.5102 7.72481 21.9204 8.72406 21.9204 9.7703C21.9204 10.8165 21.5102 11.8158 20.7693 12.5566L17.8565 15.4695C17.8547 15.4713 17.8529 15.4731 17.8511 15.4749C17.1102 16.2049 16.1218 16.6115 15.081 16.6115C14.0329 16.6115 13.0373 16.1995 12.2964 15.4568C12.1736 15.3358 12.0615 15.2057 11.9567 15.0701C11.8519 14.9328 11.7561 14.7901 11.6694 14.6419C11.4634 14.2859 11.5863 13.8251 11.9423 13.6191C12.3 13.4132 12.7608 13.536 12.9668 13.892C13.021 13.9842 13.0788 14.0745 13.1439 14.1576C13.2089 14.2426 13.2794 14.3239 13.3553 14.398C13.8143 14.8569 14.4323 15.1135 15.081 15.1135C15.7315 15.1135 16.3495 14.8569 16.8084 14.398L19.7104 11.496C20.1694 11.037 20.4206 10.419 20.4206 9.7703C20.4206 9.1216 20.1694 8.50361 19.7104 8.04284C19.2497 7.58386 18.6317 7.3327 17.983 7.3327C17.3343 7.3327 16.7163 7.58386 16.2573 8.04284L15.3466 8.95355Z" fill="#FEFEFE"/>
</svg>
