<svg width="28" height="92" viewBox="0 0 28 92" fill="none" xmlns="http://www.w3.org/2000/svg">
<mask id="mask0_46_2" style="mask-type:luminance" maskUnits="userSpaceOnUse" x="0" y="0" width="28" height="28">
<path d="M0 0H27.7551V27.7551H0V0Z" fill="white"/>
</mask>
<g mask="url(#mask0_46_2)">
<path d="M13.8775 0C6.21056 0 0 6.21237 0 13.8775C0 21.5427 6.21056 27.7551 13.8775 27.7551C21.5427 27.7551 27.7551 21.5427 27.7551 13.8775C27.7551 6.21237 21.5427 0 13.8775 0ZM5.71183 8.25966C5.71726 8.25424 5.7281 8.24882 5.73352 8.2434C5.73894 8.23798 5.74436 8.23798 5.74978 8.23256C5.76243 8.22714 5.76785 8.22172 5.77869 8.2163C5.78411 8.20907 5.78953 8.20907 5.80038 8.20365C5.81122 8.19823 5.81664 8.19281 5.82748 8.19281C5.8329 8.18738 5.84013 8.18738 5.85097 8.18196C5.86181 8.17654 5.86723 8.17654 5.87808 8.17112C5.8835 8.17112 5.89434 8.1657 5.89976 8.1657C5.9106 8.16028 5.91783 8.16028 5.92867 8.15486C5.93409 8.15486 5.94493 8.14944 5.95036 8.14944C5.9612 8.14402 5.97204 8.14402 5.98288 8.14402C5.9883 8.14402 5.99553 8.1386 6.00637 8.1386C6.01721 8.1386 6.02805 8.13137 6.0389 8.13137C6.04432 8.13137 6.04974 8.13137 6.05516 8.13137C6.07323 8.13137 6.08949 8.13137 6.11118 8.13137H21.8933C21.9095 8.13137 21.9258 8.13137 21.9475 8.13137C21.9547 8.13137 21.9601 8.13137 21.9655 8.13137C21.9764 8.13137 21.9872 8.1386 21.9981 8.1386C22.0035 8.1386 22.0089 8.14402 22.0197 8.14402C22.0324 8.14402 22.0432 8.14944 22.0541 8.14944C22.0595 8.14944 22.0703 8.15486 22.0758 8.15486C22.0866 8.16028 22.0974 8.16028 22.1029 8.1657C22.1101 8.1657 22.1209 8.17112 22.1264 8.17112C22.1372 8.17654 22.1426 8.17654 22.1535 8.18196C22.1589 8.18738 22.1643 8.18738 22.1751 8.19281C22.1878 8.19823 22.1932 8.20365 22.2041 8.20365C22.2095 8.20907 22.2149 8.20907 22.2257 8.2163C22.2366 8.22172 22.242 8.22714 22.2528 8.23256C22.2601 8.23798 22.2655 8.23798 22.2709 8.2434C22.2818 8.24882 22.2872 8.25424 22.2926 8.25966C22.298 8.26508 22.3034 8.26509 22.3034 8.2705L14.4485 16.1146C14.3275 16.2374 14.1667 16.3025 13.9986 16.3025C13.8269 16.3025 13.6661 16.2374 13.5505 16.1146L5.70099 8.2705C5.70641 8.26509 5.70641 8.26508 5.71183 8.25966ZM5.46247 9.84257L9.50828 13.8884L5.46247 17.936V9.84257ZM21.8878 19.64H6.11118C5.9612 19.64 5.81664 19.584 5.70641 19.4954L10.4082 14.7937L12.6343 17.0199C12.9939 17.3794 13.4782 17.58 13.9878 17.58C14.4991 17.58 14.9816 17.3794 15.343 17.0199L17.58 14.7828L22.2872 19.49C22.1878 19.584 22.0432 19.64 21.8878 19.64ZM22.5257 17.9125L18.4962 13.8775L22.5311 9.84257V17.9125H22.5257Z" fill="#2FB4B6"/>
</g>
<path d="M27.7533 45.8775C27.7533 46.3311 27.7316 46.7846 27.6864 47.2364C27.6412 47.6899 27.5762 48.1381 27.4858 48.5844C27.3973 49.0289 27.2871 49.4698 27.1552 49.9053C27.0232 50.3389 26.8715 50.7672 26.6962 51.1864C26.5227 51.6074 26.3294 52.0176 26.1143 52.4188C25.9011 52.8181 25.668 53.2084 25.415 53.5861C25.1621 53.9637 24.891 54.3287 24.6037 54.6793C24.3146 55.0316 24.011 55.3677 23.6894 55.6894C23.3677 56.011 23.0316 56.3146 22.6793 56.6037C22.3287 56.891 21.9637 57.1621 21.5861 57.415C21.2084 57.668 20.8181 57.9011 20.4188 58.1143C20.0176 58.3294 19.6074 58.5227 19.1864 58.6962C18.7672 58.8715 18.3389 59.0232 17.9053 59.1552C17.4698 59.2871 17.0289 59.3973 16.5844 59.4858C16.1381 59.5762 15.6899 59.6412 15.2364 59.6864C14.7846 59.7316 14.3311 59.7533 13.8775 59.7533C13.4222 59.7533 12.9686 59.7316 12.5169 59.6864C12.0633 59.6412 11.6152 59.5762 11.1689 59.4858C10.7244 59.3973 10.2835 59.2871 9.84799 59.1552C9.41432 59.0232 8.98607 58.8715 8.56685 58.6962C8.14582 58.5227 7.73564 58.3294 7.33449 58.1143C6.93515 57.9011 6.54485 57.668 6.16719 57.415C5.78953 57.1621 5.42453 56.891 5.07397 56.6037C4.72161 56.3146 4.38552 56.011 4.06388 55.6894C3.74224 55.3677 3.43867 55.0316 3.14955 54.6793C2.86224 54.3287 2.5912 53.9637 2.33822 53.5861C2.08524 53.2084 1.85214 52.8181 1.63892 52.4188C1.42389 52.0176 1.23055 51.6074 1.05708 51.1864C0.881802 50.7672 0.730016 50.3389 0.598107 49.9053C0.466198 49.4698 0.355973 49.0289 0.267432 48.5844C0.177083 48.1381 0.112033 47.6899 0.0668579 47.2364C0.0216838 46.7846 0 46.3311 0 45.8775C0 45.4222 0.0216838 44.9686 0.0668579 44.5169C0.112033 44.0633 0.177083 43.6152 0.267432 43.1689C0.355973 42.7244 0.466198 42.2835 0.598107 41.848C0.730016 41.4143 0.881802 40.9861 1.05708 40.5668C1.23055 40.1458 1.42389 39.7356 1.63892 39.3345C1.85214 38.9352 2.08524 38.5448 2.33822 38.1672C2.5912 37.7895 2.86224 37.4245 3.14955 37.074C3.43867 36.7216 3.74224 36.3855 4.06388 36.0639C4.38552 35.7422 4.72161 35.4387 5.07397 35.1496C5.42453 34.8622 5.78953 34.5912 6.16719 34.3382C6.54485 34.0852 6.93515 33.8521 7.33449 33.6389C7.73564 33.4239 8.14582 33.2305 8.56685 33.0571C8.98607 32.8818 9.41432 32.73 9.84799 32.5981C10.2835 32.4662 10.7244 32.356 11.1689 32.2674C11.6152 32.1771 12.0633 32.112 12.5169 32.0669C12.9686 32.0217 13.4222 32 13.8775 32C14.3311 32 14.7846 32.0217 15.2364 32.0669C15.6899 32.112 16.1381 32.1771 16.5844 32.2674C17.0289 32.356 17.4698 32.4662 17.9053 32.5981C18.3389 32.73 18.7672 32.8818 19.1864 33.0571C19.6074 33.2305 20.0176 33.4239 20.4188 33.6389C20.8181 33.8521 21.2084 34.0852 21.5861 34.3382C21.9637 34.5912 22.3287 34.8622 22.6793 35.1496C23.0316 35.4387 23.3677 35.7422 23.6894 36.0639C24.011 36.3855 24.3146 36.7216 24.6037 37.074C24.891 37.4245 25.1621 37.7895 25.415 38.1672C25.668 38.5448 25.9011 38.9352 26.1143 39.3345C26.3294 39.7356 26.5227 40.1458 26.6962 40.5668C26.8715 40.9861 27.0232 41.4143 27.1552 41.848C27.2871 42.2835 27.3973 42.7244 27.4858 43.1689C27.5762 43.6152 27.6412 44.0633 27.6864 44.5169C27.7316 44.9686 27.7533 45.4222 27.7533 45.8775Z" fill="#2FB4B6"/>
<path fill-rule="evenodd" clip-rule="evenodd" d="M12.4067 50.7997L13.7637 49.4427C14.0564 49.15 14.5317 49.15 14.8244 49.4427C15.1171 49.7336 15.1171 50.2107 14.8244 50.5016L12.5566 52.7693C11.8158 53.5102 10.8165 53.9204 9.77028 53.9204C8.72405 53.9204 7.72479 53.5102 6.98393 52.7693C6.24308 52.0285 5.8347 51.0292 5.8347 49.983C5.8347 48.9367 6.24308 47.9375 6.98393 47.1966L9.89677 44.2838C9.89858 44.282 9.90219 44.2802 9.90219 44.2784C10.6431 43.5484 11.6315 43.1418 12.6723 43.1418C13.7203 43.1418 14.716 43.5538 15.4568 44.2964C15.5797 44.4175 15.6917 44.5476 15.7965 44.6831C15.9013 44.8205 15.9971 44.9632 16.0838 45.1114C16.2898 45.4674 16.167 45.9281 15.811 46.1341C15.4532 46.3401 14.9924 46.2172 14.7864 45.8613C14.734 45.7691 14.6744 45.6788 14.6094 45.5957C14.5443 45.5107 14.4738 45.4312 14.3979 45.3553C13.939 44.8964 13.321 44.6398 12.6723 44.6398C12.0218 44.6398 11.4038 44.8964 10.9448 45.3553L8.04282 48.2573C7.58385 48.7163 7.33268 49.3343 7.33268 49.983C7.33268 50.6317 7.58385 51.2497 8.04282 51.7104C8.5036 52.1694 9.12158 52.4206 9.77028 52.4206C10.419 52.4206 11.037 52.1694 11.4959 51.7104L12.4067 50.7997Z" fill="#FEFEFE"/>
<path fill-rule="evenodd" clip-rule="evenodd" d="M15.3466 40.9535L13.9896 42.3106C13.6968 42.6033 13.2216 42.6033 12.9289 42.3106C12.6379 42.0197 12.6379 41.5426 12.9289 41.2517L15.1966 38.984C15.9375 38.2431 16.9367 37.8347 17.983 37.8347C19.0292 37.8347 20.0285 38.2431 20.7693 38.984C21.5102 39.7248 21.9204 40.7241 21.9204 41.7703C21.9204 42.8165 21.5102 43.8158 20.7693 44.5566L17.8565 47.4695C17.8547 47.4713 17.8529 47.4731 17.8511 47.4749C17.1102 48.2049 16.1218 48.6115 15.081 48.6115C14.0329 48.6115 13.0373 48.1995 12.2964 47.4568C12.1736 47.3358 12.0615 47.2057 11.9567 47.0701C11.8519 46.9328 11.7561 46.7901 11.6694 46.6419C11.4634 46.2859 11.5863 45.8251 11.9423 45.6191C12.3 45.4132 12.7608 45.536 12.9668 45.892C13.021 45.9842 13.0788 46.0745 13.1439 46.1576C13.2089 46.2426 13.2794 46.3239 13.3553 46.398C13.8143 46.8569 14.4323 47.1135 15.081 47.1135C15.7315 47.1135 16.3495 46.8569 16.8084 46.398L19.7104 43.496C20.1694 43.037 20.4206 42.419 20.4206 41.7703C20.4206 41.1216 20.1694 40.5036 19.7104 40.0428C19.2497 39.5839 18.6317 39.3327 17.983 39.3327C17.3343 39.3327 16.7163 39.5839 16.2573 40.0428L15.3466 40.9535Z" fill="#FEFEFE"/>
<path d="M13.8775 64C6.21237 64 0 70.2124 0 77.8775C0 85.5427 6.21237 91.7551 13.8775 91.7551C21.5427 91.7551 27.7551 85.5427 27.7551 77.8775C27.7551 70.2124 21.5427 64 13.8775 64ZM21.0657 83.2226C21.0657 83.6888 20.8669 84.1333 20.5218 84.4495C20.1784 84.7657 19.7122 84.9211 19.246 84.8777C17.6469 84.7278 16.0983 84.3049 14.6491 83.6165C13.2397 82.9461 11.9676 82.0462 10.8581 80.9422C9.75403 79.8363 8.84874 78.5606 8.18196 77.1511C7.49351 75.7019 7.06706 74.1588 6.92251 72.5542C6.91708 72.5036 6.91708 72.4548 6.91708 72.4042C6.91708 71.9886 7.07248 71.5875 7.34895 71.2767C7.66517 70.9333 8.10968 70.7328 8.57588 70.7328H10.8075C11.6568 70.7328 12.3615 71.367 12.4573 72.2036C12.5115 72.6988 12.6127 73.1866 12.7554 73.6583C12.9397 74.2528 12.7789 74.8906 12.3452 75.3243L11.4399 76.2296C12.3904 77.9607 13.8324 79.4044 15.5652 80.3531L16.4705 79.4478C16.9024 79.0159 17.5421 78.8551 18.1348 79.0376C18.6064 79.1822 19.0961 79.2816 19.5894 79.3376C20.4278 79.4315 21.0602 80.1417 21.0602 80.9855V83.2226H21.0657Z" fill="#2FB4B6"/>
</svg>
