<svg width="28" height="28" viewBox="0 0 28 28" fill="none" xmlns="http://www.w3.org/2000/svg">
<mask id="mask0_1_417" style="mask-type:luminance" maskUnits="userSpaceOnUse" x="0" y="0" width="28" height="28">
<path d="M0 0H27.7551V27.7551H0V0Z" fill="white"/>
</mask>
<g mask="url(#mask0_1_417)">
<path d="M13.8775 0C6.21056 0 0 6.21237 0 13.8775C0 21.5427 6.21056 27.7551 13.8775 27.7551C21.5427 27.7551 27.7551 21.5427 27.7551 13.8775C27.7551 6.21237 21.5427 0 13.8775 0ZM5.71183 8.25966C5.71726 8.25424 5.7281 8.24882 5.73352 8.2434C5.73894 8.23798 5.74436 8.23798 5.74978 8.23256C5.76243 8.22714 5.76785 8.22172 5.77869 8.2163C5.78411 8.20907 5.78953 8.20907 5.80038 8.20365C5.81122 8.19823 5.81664 8.19281 5.82748 8.19281C5.8329 8.18738 5.84013 8.18738 5.85097 8.18196C5.86181 8.17654 5.86723 8.17654 5.87808 8.17112C5.8835 8.17112 5.89434 8.1657 5.89976 8.1657C5.9106 8.16028 5.91783 8.16028 5.92867 8.15486C5.93409 8.15486 5.94493 8.14944 5.95036 8.14944C5.9612 8.14402 5.97204 8.14402 5.98288 8.14402C5.9883 8.14402 5.99553 8.1386 6.00637 8.1386C6.01721 8.1386 6.02805 8.13137 6.0389 8.13137C6.04432 8.13137 6.04974 8.13137 6.05516 8.13137C6.07323 8.13137 6.08949 8.13137 6.11118 8.13137H21.8933C21.9095 8.13137 21.9258 8.13137 21.9475 8.13137C21.9547 8.13137 21.9601 8.13137 21.9655 8.13137C21.9764 8.13137 21.9872 8.1386 21.9981 8.1386C22.0035 8.1386 22.0089 8.14402 22.0197 8.14402C22.0324 8.14402 22.0432 8.14944 22.0541 8.14944C22.0595 8.14944 22.0703 8.15486 22.0758 8.15486C22.0866 8.16028 22.0974 8.16028 22.1029 8.1657C22.1101 8.1657 22.1209 8.17112 22.1264 8.17112C22.1372 8.17654 22.1426 8.17654 22.1535 8.18196C22.1589 8.18738 22.1643 8.18738 22.1751 8.19281C22.1878 8.19823 22.1932 8.20365 22.2041 8.20365C22.2095 8.20907 22.2149 8.20907 22.2257 8.2163C22.2366 8.22172 22.242 8.22714 22.2528 8.23256C22.2601 8.23798 22.2655 8.23798 22.2709 8.2434C22.2818 8.24882 22.2872 8.25424 22.2926 8.25966C22.298 8.26508 22.3034 8.26509 22.3034 8.2705L14.4485 16.1146C14.3275 16.2374 14.1667 16.3025 13.9986 16.3025C13.8269 16.3025 13.6661 16.2374 13.5505 16.1146L5.70099 8.2705C5.70641 8.26509 5.70641 8.26508 5.71183 8.25966ZM5.46247 9.84257L9.50828 13.8884L5.46247 17.936V9.84257ZM21.8878 19.64H6.11118C5.9612 19.64 5.81664 19.584 5.70641 19.4954L10.4082 14.7937L12.6343 17.0199C12.9939 17.3794 13.4782 17.58 13.9878 17.58C14.4991 17.58 14.9816 17.3794 15.343 17.0199L17.58 14.7828L22.2872 19.49C22.1878 19.584 22.0432 19.64 21.8878 19.64ZM22.5257 17.9125L18.4962 13.8775L22.5311 9.84257V17.9125H22.5257Z" fill="#2FB4B6"/>
</g>
</svg>
