<svg width="270" height="60" viewBox="0 0 270 60" fill="none" xmlns="http://www.w3.org/2000/svg">
<path d="M12.5626 14.4614C17.4839 14.4614 21.2968 16.1818 23.9938 19.6228L20.7776 23.3505C18.5843 20.5296 15.7711 19.1191 12.3534 19.1191C10.6639 19.1191 9.38517 19.4368 8.54043 20.0646C7.69569 20.6923 7.26944 21.4983 7.26944 22.4825C7.26944 23.2653 7.56394 23.9085 8.16068 24.4123C8.75743 24.9083 9.74942 25.3268 11.1444 25.6678L16.2671 26.838C18.9408 27.4347 20.8783 28.3337 22.0873 29.5427C23.2963 30.7672 23.9008 32.3482 23.9008 34.3089C23.9008 37.0214 22.8701 39.1527 20.8163 40.6794C18.7548 42.2216 16.0424 42.9811 12.6866 42.9811C9.90442 42.9811 7.42444 42.4929 5.23896 41.5164C3.05348 40.5399 1.30974 39.2224 0 37.5717L3.24722 33.6657C4.22372 35.0684 5.53345 36.1922 7.19194 37.0447C8.85043 37.9049 10.6717 38.3312 12.6711 38.3312C14.3684 38.3312 15.6781 38.0522 16.6004 37.4787C17.5149 36.8974 17.9721 36.0837 17.9721 35.0142C17.9721 33.4797 16.8329 32.4567 14.5466 31.9607L8.95893 30.6975C3.84397 29.5505 1.28649 27.0473 1.28649 23.1878C1.28649 20.6768 2.29398 18.5921 4.32446 16.9336C6.35495 15.2906 9.09842 14.4614 12.5394 14.4614H12.5626Z" fill="#072B5D"/>
<path d="M47.0498 42.5627L44.8023 35.8125H34.1694L31.9219 42.5627H26.0397L36.0914 14.8799H42.9733L53.025 42.5627H47.0498ZM35.6264 31.5267H43.3841L40.7491 23.7303L39.5014 19.5298H39.4239L38.2614 23.6451L35.6264 31.5267Z" fill="#072B5D"/>
<path d="M62.8597 14.8799V42.5627H57.1015V14.8799H62.8597Z" fill="#072B5D"/>
<path d="M75.9416 50.6768C85.5437 49.9638 99.2456 49.2663 115.799 49.4911C119.961 49.5453 139.53 49.8631 139.553 50.979C139.576 52.002 122.891 52.6608 95.6109 56.0243C84.7765 57.3573 75.9106 58.667 70.0439 59.5815V14.8721H75.7943C75.8486 26.807 75.8951 38.7419 75.9493 50.6691L75.9416 50.6768Z" fill="#2FB4B6"/>
<path d="M96.3627 18.2588C98.742 15.7246 101.974 14.4614 106.058 14.4614C110.15 14.4614 113.374 15.7246 115.738 18.2588C118.101 20.7853 119.279 24.2728 119.279 28.729C119.279 33.1775 118.094 36.6649 115.738 39.1991C113.374 41.7256 110.15 42.9889 106.058 42.9889C101.974 42.9889 98.742 41.7256 96.3627 39.1991C93.9835 36.6649 92.7978 33.1775 92.7978 28.729C92.7978 24.2728 93.9835 20.7853 96.3627 18.2588ZM106.058 19.2043C103.725 19.2043 101.927 20.0181 100.664 21.661C99.393 23.2963 98.7652 25.66 98.7652 28.729C98.7652 31.7902 99.393 34.1617 100.664 35.7892C101.927 37.4322 103.725 38.2459 106.058 38.2459C108.391 38.2459 110.158 37.4322 111.421 35.7892C112.684 34.1539 113.312 31.8057 113.312 28.729C113.312 25.6445 112.684 23.2885 111.421 21.661C110.158 20.0181 108.375 19.2043 106.058 19.2043Z" fill="#072B5D"/>
<path d="M129.749 42.5627L121.744 14.8799H127.874L133.291 37.7422L138.801 14.8799H144.304L149.899 37.7422L155.278 14.8799H161.16L153.154 42.5627H146.691L142.862 27.458L141.568 20.9171H141.483L140.189 27.458L136.399 42.5627H129.749Z" fill="#072B5D"/>
<path d="M187.347 0.495994C206.574 2.18548 222.16 7.63369 221.989 8.45518C221.857 9.06742 214.34 7.37794 200.421 6.54094C190.896 5.96745 183.038 6.07595 177.76 6.26195C177.876 18.3673 178 30.4727 178.124 42.5704H172.366C172.428 30.3797 172.506 18.1813 172.568 5.9907C167.058 5.93645 158.827 5.9907 148.814 6.54094C134.624 7.32369 127.905 8.51718 127.789 7.91268C127.626 7.02919 143.769 2.06148 163.097 0.503744C175.009 -0.464999 183.991 0.209245 187.324 0.503744L187.347 0.495994Z" fill="#FFA83E"/>
<path d="M192.051 42.5626V14.8799H212.689V19.5376H197.809V26.4195H209.527V30.868H197.809V37.9127H213.278V42.5704H192.051V42.5626Z" fill="#072B5D"/>
<path d="M241.635 34.9367C240.822 37.595 239.396 39.5944 237.334 40.9507C235.28 42.3069 232.824 42.9889 229.956 42.9889C225.864 42.9889 222.632 41.7257 220.261 39.1992C217.882 36.665 216.688 33.1775 216.688 28.729C216.688 24.2728 217.882 20.8241 220.261 18.2821C222.632 15.7324 225.841 14.4691 229.871 14.4691C232.731 14.4691 235.164 15.0659 237.148 16.2671C239.132 17.4684 240.504 19.2664 241.255 21.6456L236.032 23.8621C235.59 22.2191 234.885 21.0256 233.932 20.2971C232.979 19.5686 231.7 19.2044 230.119 19.2044C227.786 19.2044 225.957 20.0336 224.64 21.6766C223.314 23.3273 222.656 25.6756 222.656 28.729C222.656 31.7748 223.291 34.1617 224.57 35.7892C225.849 37.4322 227.709 38.2459 230.119 38.2459C233.397 38.2459 235.474 36.6107 236.327 33.3402L241.627 34.9367H241.635Z" fill="#072B5D"/>
<mask id="mask0_1_397" style="mask-type:luminance" maskUnits="userSpaceOnUse" x="246" y="14" width="24" height="31">
<path d="M246.409 14.3451H270V44.1049H246.409V14.3451Z" fill="white"/>
</mask>
<g mask="url(#mask0_1_397)">
<path d="M264.451 14.8799H270.201V42.5626H264.451V30.899H252.315V42.5626H246.564V14.8799H252.315V26.249H264.451V14.8799Z" fill="#072B5D"/>
</g>
</svg>
