<svg width="28" height="28" viewBox="0 0 28 28" fill="none" xmlns="http://www.w3.org/2000/svg">
<path d="M13.8775 0C6.21237 0 0 6.21237 0 13.8775C0 21.5427 6.21237 27.7551 13.8775 27.7551C21.5427 27.7551 27.7551 21.5427 27.7551 13.8775C27.7551 6.21237 21.5427 0 13.8775 0ZM21.0657 19.2226C21.0657 19.6888 20.8669 20.1333 20.5218 20.4495C20.1784 20.7657 19.7122 20.9211 19.246 20.8777C17.6469 20.7278 16.0983 20.3049 14.6491 19.6165C13.2397 18.9461 11.9676 18.0462 10.8581 16.9422C9.75403 15.8363 8.84874 14.5606 8.18196 13.1511C7.49351 11.7019 7.06706 10.1588 6.92251 8.5542C6.91708 8.5036 6.91708 8.45482 6.91708 8.40422C6.91708 7.98862 7.07248 7.58747 7.34895 7.27667C7.66517 6.93335 8.10968 6.73277 8.57588 6.73277H10.8075C11.6568 6.73277 12.3615 7.36702 12.4573 8.20365C12.5115 8.69876 12.6127 9.18664 12.7554 9.65826C12.9397 10.2528 12.7789 10.8906 12.3452 11.3243L11.4399 12.2296C12.3904 13.9607 13.8324 15.4044 15.5652 16.3531L16.4705 15.4478C16.9024 15.0159 17.5421 14.8551 18.1348 15.0376C18.6064 15.1822 19.0961 15.2816 19.5894 15.3376C20.4278 15.4315 21.0602 16.1417 21.0602 16.9855V19.2226H21.0657Z" fill="#2FB4B6"/>
</svg>
